<svg id="Warstwa_2" data-name="Warstwa 2" xmlns="http://www.w3.org/2000/svg" viewBox="0 0 813 308"><defs><style>.cls-1,.cls-7{fill:#6e6f80;}.cls-1,.cls-10,.cls-11,.cls-12,.cls-2,.cls-3,.cls-4,.cls-5,.cls-6,.cls-7,.cls-8,.cls-9{stroke:#000;stroke-miterlimit:10;}.cls-1{stroke-width:8px;}.cls-2,.cls-8{fill:#42434d;}.cls-2,.cls-3,.cls-4{stroke-width:6px;}.cls-3,.cls-9{fill:none;}.cls-10,.cls-4{fill:#585966;}.cls-11,.cls-5{fill:#fff;}.cls-5,.cls-6,.cls-7{stroke-width:2px;}</style></defs><circle class="cls-1" cx="659" cy="154" r="150"/><circle class="cls-2" cx="659" cy="154" r="120"/><path class="cls-3" d="M990.61,606.61a89.86,89.86,0,0,1-125.87,1.33" transform="translate(-268 -389)"/><path class="cls-3" d="M859.19,483.88a89.9,89.9,0,0,1,139.14,4.3" transform="translate(-268 -389)"/><circle class="cls-4" cx="659" cy="154" r="45"/><circle class="cls-5" cx="659" cy="154" r="20"/><circle class="cls-6" cx="582" cy="159" r="5"/><circle class="cls-6" cx="746" cy="159" r="5"/><circle class="cls-7" cx="33" cy="174" r="32"/><circle class="cls-8" cx="33" cy="174" r="25.6"/><path class="cls-9" d="M314.57,576.57a19.16,19.16,0,0,1-26.85.28" transform="translate(-268 -389)"/><path class="cls-9" d="M286.53,550.39a19.19,19.19,0,0,1,29.69.91" transform="translate(-268 -389)"/><circle class="cls-10" cx="33" cy="174" r="9.6"/><circle class="cls-11" cx="33" cy="174" r="4.27"/><circle class="cls-12" cx="16.57" cy="175.07" r="1.07"/><circle class="cls-12" cx="51.56" cy="175.07" r="1.07"/></svg>